<svg width="36" height="34" viewBox="0 0 36 34" fill="none" xmlns="http://www.w3.org/2000/svg">
<path d="M18.1234 32.5837C9.51809 32.5837 2.52173 25.5995 2.52173 17.0064C2.52173 8.40116 9.51809 1.41699 18.1234 1.41699C26.7286 1.41699 33.725 8.40116 33.725 16.9942C33.725 25.5873 26.7286 32.5837 18.1234 32.5837ZM31.275 19.1273C30.8241 18.981 27.1552 17.8962 22.9745 18.5544C24.7175 23.3324 25.4244 27.2328 25.5585 28.0373C28.5569 26.0261 30.69 22.8327 31.275 19.1273ZM23.328 29.2683C23.1329 28.0982 22.3529 24.0272 20.488 19.176C20.4636 19.1882 20.427 19.2004 20.4027 19.2004C12.8822 21.821 10.1885 27.0256 9.94469 27.5132C12.1996 29.2683 15.0396 30.3166 18.1234 30.3166C19.9639 30.3288 21.7312 29.9509 23.328 29.2683ZM8.22607 25.9164C8.53079 25.4045 12.1874 19.3589 19.0619 17.1283C19.2325 17.0674 19.4154 17.0186 19.586 16.9699C19.2569 16.2142 18.8913 15.4585 18.5012 14.7149C11.8461 16.7017 5.38609 16.6164 4.80103 16.6042C4.80103 16.7383 4.78884 16.8724 4.78884 17.0064C4.80103 20.4315 6.09304 23.5518 8.22607 25.9164ZM5.08137 14.2883C5.67862 14.3005 11.1636 14.3249 17.4042 12.6672C15.1981 8.74245 12.8091 5.45148 12.4678 4.97611C8.72581 6.7313 5.94677 10.1685 5.08137 14.2883ZM15.003 4.07414C15.3687 4.5617 17.7943 7.85266 19.9761 11.8628C24.7175 10.0832 26.7164 7.40168 26.9602 7.06039C24.6078 4.97611 21.5118 3.70848 18.1234 3.70848C17.0507 3.70848 16.0025 3.84256 15.003 4.07414ZM28.4351 8.59618C28.1547 8.97403 25.9242 11.8384 20.9999 13.8495C21.3046 14.4834 21.6093 15.1294 21.8897 15.7754C21.9872 16.007 22.0847 16.2385 22.1822 16.4579C26.6189 15.8973 31.0191 16.7992 31.4579 16.8845C31.4213 13.752 30.2999 10.8633 28.4351 8.59618Z" fill="#0F0F0F"/>
</svg>
