<svg width="35" height="34" viewBox="0 0 35 34" fill="none" xmlns="http://www.w3.org/2000/svg">
<path d="M12.7983 17.0001C12.7983 14.3922 14.9131 12.2775 17.5225 12.2775C20.132 12.2775 22.248 14.3922 22.248 17.0001C22.248 19.608 20.132 21.7227 17.5225 21.7227C14.9131 21.7227 12.7983 19.608 12.7983 17.0001ZM10.2438 17.0001C10.2438 21.0178 13.5025 24.2745 17.5225 24.2745C21.5426 24.2745 24.8013 21.0178 24.8013 17.0001C24.8013 12.9825 21.5426 9.72573 17.5225 9.72573C13.5025 9.72573 10.2438 12.9825 10.2438 17.0001ZM23.3884 9.4373C23.3883 9.77353 23.4879 10.1022 23.6747 10.3819C23.8615 10.6615 24.1271 10.8795 24.4379 11.0083C24.7486 11.1371 25.0906 11.1709 25.4206 11.1054C25.7506 11.04 26.0538 10.8782 26.2918 10.6405C26.5298 10.4029 26.6919 10.1 26.7576 9.7703C26.8234 9.44056 26.7899 9.09873 26.6612 8.78805C26.5326 8.47736 26.3147 8.21177 26.035 8.02486C25.7554 7.83795 25.4266 7.73812 25.0901 7.73798H25.0895C24.6385 7.73819 24.2061 7.91727 23.8871 8.23589C23.5682 8.55451 23.3888 8.98661 23.3884 9.4373ZM11.7958 28.5314C10.4138 28.4685 9.6626 28.2385 9.16341 28.0441C8.5016 27.7866 8.0294 27.4799 7.53293 26.9844C7.03646 26.4889 6.72914 26.0175 6.47263 25.3561C6.27803 24.8574 6.04783 24.1064 5.98501 22.7253C5.91629 21.232 5.90256 20.7834 5.90256 17.0002C5.90256 13.2171 5.91742 12.7697 5.98501 11.2752C6.04794 9.89403 6.27985 9.14456 6.47263 8.64442C6.73028 7.98301 7.03714 7.51109 7.53293 7.01492C8.02872 6.51875 8.50047 6.21161 9.16341 5.95525C9.66237 5.76077 10.4138 5.53071 11.7958 5.46792C13.29 5.39924 13.7388 5.38553 17.5225 5.38553C21.3063 5.38553 21.7556 5.40038 23.251 5.46792C24.633 5.53082 25.3829 5.76259 25.8834 5.95525C26.5452 6.21161 27.0174 6.51943 27.5139 7.01492C28.0103 7.51041 28.3165 7.98301 28.5742 8.64442C28.7687 9.14309 28.999 9.89403 29.0618 11.2752C29.1305 12.7697 29.1442 13.2171 29.1442 17.0002C29.1442 20.7834 29.1305 21.2307 29.0618 22.7253C28.9988 24.1064 28.7675 24.8572 28.5742 25.3561C28.3165 26.0175 28.0096 26.4894 27.5139 26.9844C27.0181 27.4795 26.5452 27.7866 25.8834 28.0441C25.3844 28.2386 24.633 28.4686 23.251 28.5314C21.7568 28.6001 21.308 28.6138 17.5225 28.6138C13.7371 28.6138 13.2895 28.6001 11.7958 28.5314ZM11.6784 2.91929C10.1694 2.98797 9.13824 3.2271 8.23772 3.5773C7.30511 3.93895 6.51561 4.42413 5.72668 5.21134C4.93775 5.99855 4.45353 6.78882 4.09166 7.72087C3.74125 8.62141 3.50198 9.65138 3.43326 11.1595C3.3634 12.67 3.34741 13.1529 3.34741 17.0001C3.34741 20.8473 3.3634 21.3302 3.43326 22.8407C3.50198 24.349 3.74125 25.3788 4.09166 26.2794C4.45353 27.2109 4.93786 28.002 5.72668 28.7889C6.5155 29.5758 7.30511 30.0603 8.23772 30.4229C9.13994 30.7731 10.1694 31.0123 11.6784 31.081C13.1906 31.1496 13.673 31.1668 17.5225 31.1668C21.3721 31.1668 21.8553 31.1508 23.3667 31.081C24.8758 31.0123 25.9063 30.7731 26.8074 30.4229C27.7394 30.0603 28.5295 29.5761 29.3184 28.7889C30.1073 28.0017 30.5905 27.2109 30.9534 26.2794C31.3038 25.3788 31.5442 24.3489 31.6118 22.8407C31.6805 21.3291 31.6965 20.8473 31.6965 17.0001C31.6965 13.1529 31.6805 12.67 31.6118 11.1595C31.5431 9.65127 31.3038 8.62085 30.9534 7.72087C30.5905 6.78939 30.1061 5.99979 29.3184 5.21134C28.5307 4.42288 27.7394 3.93895 26.8085 3.5773C25.9063 3.2271 24.8757 2.98684 23.3678 2.91929C21.8564 2.85061 21.3732 2.8335 17.5237 2.8335C13.6742 2.8335 13.1906 2.84948 11.6784 2.91929Z" fill="#0F0F0F"/>
<path d="M12.7983 17.0001C12.7983 14.3922 14.9131 12.2775 17.5225 12.2775C20.132 12.2775 22.248 14.3922 22.248 17.0001C22.248 19.608 20.132 21.7227 17.5225 21.7227C14.9131 21.7227 12.7983 19.608 12.7983 17.0001ZM10.2438 17.0001C10.2438 21.0178 13.5025 24.2745 17.5225 24.2745C21.5426 24.2745 24.8013 21.0178 24.8013 17.0001C24.8013 12.9825 21.5426 9.72573 17.5225 9.72573C13.5025 9.72573 10.2438 12.9825 10.2438 17.0001ZM23.3884 9.4373C23.3883 9.77353 23.4879 10.1022 23.6747 10.3819C23.8615 10.6615 24.1271 10.8795 24.4379 11.0083C24.7486 11.1371 25.0906 11.1709 25.4206 11.1054C25.7506 11.04 26.0538 10.8782 26.2918 10.6405C26.5298 10.4029 26.6919 10.1 26.7576 9.7703C26.8234 9.44056 26.7899 9.09873 26.6612 8.78805C26.5326 8.47736 26.3147 8.21177 26.035 8.02486C25.7554 7.83795 25.4266 7.73812 25.0901 7.73798H25.0895C24.6385 7.73819 24.2061 7.91727 23.8871 8.23589C23.5682 8.55451 23.3888 8.98661 23.3884 9.4373ZM11.7958 28.5314C10.4138 28.4685 9.6626 28.2385 9.16341 28.0441C8.5016 27.7866 8.0294 27.4799 7.53293 26.9844C7.03646 26.4889 6.72914 26.0175 6.47263 25.3561C6.27803 24.8574 6.04783 24.1064 5.98501 22.7253C5.91629 21.232 5.90256 20.7834 5.90256 17.0002C5.90256 13.2171 5.91742 12.7697 5.98501 11.2752C6.04794 9.89403 6.27985 9.14456 6.47263 8.64442C6.73028 7.98301 7.03714 7.51109 7.53293 7.01492C8.02872 6.51875 8.50047 6.21161 9.16341 5.95525C9.66237 5.76077 10.4138 5.53071 11.7958 5.46792C13.29 5.39924 13.7388 5.38553 17.5225 5.38553C21.3063 5.38553 21.7556 5.40038 23.251 5.46792C24.633 5.53082 25.3829 5.76259 25.8834 5.95525C26.5452 6.21161 27.0174 6.51943 27.5139 7.01492C28.0103 7.51041 28.3165 7.98301 28.5742 8.64442C28.7687 9.14309 28.999 9.89403 29.0618 11.2752C29.1305 12.7697 29.1442 13.2171 29.1442 17.0002C29.1442 20.7834 29.1305 21.2307 29.0618 22.7253C28.9988 24.1064 28.7675 24.8572 28.5742 25.3561C28.3165 26.0175 28.0096 26.4894 27.5139 26.9844C27.0181 27.4795 26.5452 27.7866 25.8834 28.0441C25.3844 28.2386 24.633 28.4686 23.251 28.5314C21.7568 28.6001 21.308 28.6138 17.5225 28.6138C13.7371 28.6138 13.2895 28.6001 11.7958 28.5314ZM11.6784 2.91929C10.1694 2.98797 9.13824 3.2271 8.23772 3.5773C7.30511 3.93895 6.51561 4.42413 5.72668 5.21134C4.93775 5.99855 4.45353 6.78882 4.09166 7.72087C3.74125 8.62141 3.50198 9.65138 3.43326 11.1595C3.3634 12.67 3.34741 13.1529 3.34741 17.0001C3.34741 20.8473 3.3634 21.3302 3.43326 22.8407C3.50198 24.349 3.74125 25.3788 4.09166 26.2794C4.45353 27.2109 4.93786 28.002 5.72668 28.7889C6.5155 29.5758 7.30511 30.0603 8.23772 30.4229C9.13994 30.7731 10.1694 31.0123 11.6784 31.081C13.1906 31.1496 13.673 31.1668 17.5225 31.1668C21.3721 31.1668 21.8553 31.1508 23.3667 31.081C24.8758 31.0123 25.9063 30.7731 26.8074 30.4229C27.7394 30.0603 28.5295 29.5761 29.3184 28.7889C30.1073 28.0017 30.5905 27.2109 30.9534 26.2794C31.3038 25.3788 31.5442 24.3489 31.6118 22.8407C31.6805 21.3291 31.6965 20.8473 31.6965 17.0001C31.6965 13.1529 31.6805 12.67 31.6118 11.1595C31.5431 9.65127 31.3038 8.62085 30.9534 7.72087C30.5905 6.78939 30.1061 5.99979 29.3184 5.21134C28.5307 4.42288 27.7394 3.93895 26.8085 3.5773C25.9063 3.2271 24.8757 2.98684 23.3678 2.91929C21.8564 2.85061 21.3732 2.8335 17.5237 2.8335C13.6742 2.8335 13.1906 2.84948 11.6784 2.91929Z" fill="#0F0F0F"/>
</svg>
